<svg width="2623" height="610" viewBox="0 0 2623 610" fill="none" xmlns="http://www.w3.org/2000/svg">
<path d="M620.631 40C631.964 32.3333 645.464 26.3333 661.131 22C676.798 17.6666 689.464 15.5 699.131 15.5C708.798 15.5 714.964 15.5 717.631 15.5V20.5C701.964 21.1666 687.298 24.3333 673.631 30C659.964 35.3333 648.631 41.6667 639.631 49C630.964 56 622.464 65.5 614.131 77.5C605.798 89.1667 599.298 99.1667 594.631 107.5C590.298 115.833 585.131 126.5 579.131 139.5L440.131 443.5C427.798 470.5 421.631 487.667 421.631 495H417.131L276.631 174.5C271.964 163.833 265.464 156 257.131 151C249.131 145.667 240.964 143 232.631 143H228.631V138H341.131V143H336.631C326.631 143 319.964 147.667 316.631 157C315.964 159 315.631 161.333 315.631 164C315.631 166.667 316.464 170 318.131 174L422.631 436L546.631 139.5C566.298 93.1667 590.964 60 620.631 40ZM598.783 121C620.45 112 641.283 107.5 661.283 107.5C677.95 107.5 695.117 113.667 712.783 126C722.45 132.667 733.283 145.667 745.283 165C753.283 178.333 763.45 202.5 775.783 237.5L836.783 410.5C850.783 449.167 864.95 479.833 879.283 502.5C893.95 525.5 907.283 542.667 919.283 554C931.283 565.667 943.783 573.833 956.783 578.5C969.783 583.167 980.45 585.5 988.783 585.5C997.45 585.5 1005.12 584.833 1011.78 583.5L1012.28 588.5C996.283 593.833 980.617 596.5 965.283 596.5C949.95 596.5 934.617 592.5 919.283 584.5C903.95 576.833 889.617 566 876.283 552C847.617 523 823.283 478.833 803.283 419.5L783.783 362.5H646.783L612.283 451.5C610.617 455.5 609.783 459.5 609.783 463.5C609.783 467.5 611.45 471.833 614.783 476.5C618.45 480.833 623.95 483 631.283 483H635.283V488H534.783V483H539.283C547.283 483 555.117 480.667 562.783 476C570.45 471 576.783 463.667 581.783 454L705.783 157C687.783 131.333 665.45 118.5 638.783 118.5C626.783 118.5 613.95 121 600.283 126L598.783 121ZM652.283 347.5H778.783L739.283 231C731.617 208.667 724.617 191.167 718.283 178.5L652.283 347.5ZM1412.97 564C1386.31 572.333 1362.31 573.833 1340.97 568.5C1318.64 562.5 1299.31 553.167 1282.97 540.5C1267.31 527.833 1251.31 512.667 1234.97 495L971.475 203V453C971.808 464.667 976.975 473.333 986.975 479C991.641 481.667 996.641 483 1001.97 483H1011.47V488H908.475V483H917.975C926.308 483 933.475 480.167 939.475 474.5C945.475 468.5 948.475 461.167 948.475 452.5V178C946.808 175.667 943.475 171.333 938.475 165C933.475 158.333 929.308 153 925.975 149C922.641 145 918.141 139.833 912.475 133.5C906.808 126.833 901.475 121.5 896.475 117.5C891.808 113.5 886.308 108.833 879.975 103.5C869.975 95.8333 859.308 90.3333 847.975 87C836.641 83.6666 827.141 82 819.475 82C811.475 82 802.975 83.3333 793.975 86L791.975 81C807.975 74.3333 823.475 71 838.475 71C853.141 71 865.808 72.8333 876.475 76.5C887.141 79.8333 898.641 86 910.975 95C923.308 104 933.308 112.333 940.975 120C948.975 127.667 958.475 137.667 969.475 150L1221.47 430V173.5C1221.14 164.833 1217.97 157.667 1211.97 152C1205.97 146 1198.81 143 1190.47 143H1180.97V138H1283.97V143H1274.97C1266.64 143 1259.47 146 1253.47 152C1247.47 157.667 1244.31 164.667 1243.97 173V455.5C1247.31 459.167 1251.97 464.667 1257.97 472C1264.31 479.333 1268.64 484.5 1270.97 487.5C1273.64 490.5 1277.47 494.833 1282.47 500.5C1287.47 506.167 1291.64 510.5 1294.97 513.5C1298.64 516.833 1302.97 520.833 1307.97 525.5C1313.31 530.5 1318.14 534.333 1322.47 537C1327.14 540 1332.31 543.333 1337.97 547C1345.97 551.667 1354.97 555.167 1364.97 557.5C1375.31 559.833 1383.64 561 1389.97 561C1396.64 561 1403.64 560.333 1410.97 559L1412.97 564ZM1555.88 497.5C1626.88 522.167 1680.05 538.833 1715.38 547.5C1751.05 556.5 1781.55 561 1806.88 561C1832.55 561 1860.72 555.167 1891.38 543.5L1893.88 547.5C1853.22 575.5 1812.22 589.5 1770.88 589.5C1728.55 589.5 1680.38 576.333 1626.38 550C1584.72 529.333 1558.88 516.833 1548.88 512.5C1513.22 496.5 1483.88 488.333 1460.88 488V483H1467.38C1476.05 483 1483.38 480 1489.38 474C1495.72 468 1499.05 460.5 1499.38 451.5V174.5C1499.05 165.833 1495.72 158.5 1489.38 152.5C1483.38 146.167 1476.05 143 1467.38 143H1460.88V138H1570.38V143H1563.88C1555.22 143 1547.72 146.167 1541.38 152.5C1535.05 158.5 1531.88 165.833 1531.88 174.5V463C1531.88 469 1532.22 473.667 1532.88 477C1533.55 480 1535.72 483.5 1539.38 487.5C1543.05 491.5 1548.55 494.833 1555.88 497.5ZM1668.07 483C1676.74 483 1684.07 480 1690.07 474C1696.4 467.667 1699.74 460.167 1700.07 451.5V171.5C1700.07 163.5 1696.9 156.833 1690.57 151.5C1684.24 145.833 1676.74 143 1668.07 143H1662.07L1661.57 138H1763.07C1773.4 138 1784.57 137 1796.57 135C1808.9 133 1817.57 131 1822.57 129V192H1817.57V183C1817.57 175 1814.74 168.167 1809.07 162.5C1803.74 156.833 1797.24 153.833 1789.57 153.5H1732.57V308H1827.57C1834.24 307.667 1839.9 305.167 1844.57 300.5C1849.24 295.833 1851.57 290 1851.57 283V276H1856.57V355H1851.57V347.5C1851.57 340.833 1849.24 335.167 1844.57 330.5C1840.24 325.833 1834.74 323.333 1828.07 323H1732.57V472.5H1839.07C1863.74 472.5 1882.57 467 1895.57 456C1908.57 445 1919.4 428.667 1928.07 407H1933.07L1904.07 488H1661.57V483H1668.07ZM2064.01 254.5C2062.68 250.167 2062.01 246.5 2062.01 243.5C2062.01 240.167 2062.18 236.5 2062.51 232.5C2062.85 228.5 2063.51 223 2064.51 216C2065.85 209 2068.18 202.167 2071.51 195.5C2074.85 188.5 2078.68 181.833 2083.01 175.5C2087.35 169.167 2092.85 163.333 2099.51 158C2106.51 152.667 2114.18 148 2122.51 144C2140.18 135.333 2161.68 131 2187.01 131C2238.01 131 2279.51 148 2311.51 182C2343.85 215.667 2360.01 258.833 2360.01 311.5C2360.01 364.167 2341.01 408 2303.01 443C2265.01 477.667 2216.85 495 2158.51 495C2100.18 495 2051.68 477.667 2013.01 443C1974.68 408.333 1955.51 363.333 1955.51 308C1955.51 272.333 1963.85 240.667 1980.51 213C1997.18 185.333 2021.01 163.667 2052.01 148L2055.01 152.5C2033.35 166.833 2017.68 187.5 2008.01 214.5C1998.68 241.5 1994.01 270.167 1994.01 300.5C1994.01 356.833 2009.35 400.833 2040.01 432.5C2070.68 464.167 2110.01 480 2158.01 480C2206.01 480 2245.18 464.167 2275.51 432.5C2306.18 400.5 2321.51 358.5 2321.51 306.5C2321.51 261.5 2309.35 223.5 2285.01 192.5C2261.01 161.5 2227.01 146 2183.01 146C2163.35 146 2145.51 149.5 2129.51 156.5C2100.51 168.833 2081.35 189.167 2072.01 217.5C2069.35 225.833 2068.01 233 2068.01 239C2068.01 245 2068.35 249.833 2069.01 253.5L2064.01 254.5Z" fill="#CAA756"/>
</svg>
